<svg xmlns="http://www.w3.org/2000/svg"  viewBox="0 0 100 100" width="100px" height="100px"><path fill="#f9e65c" d="M80,32.5C80,21.319,71.413,10,55,10c-0.553,0-1,0.447-1,1c0,0.008,0.004,0.014,0.004,0.022 C42.865,11.253,40.141,15.289,37,20c-2,3-7,12-7,12s-3,1-3,3.5c0,0.857,0.296,1.594,0.683,2.196C24.873,39.643,23,43.077,23,47 c0,3.628,1.604,6.836,4.067,8.84l0.059,0.074C27.048,56.265,27,56.626,27,57c0,2.761,2.239,5,5,5h1c0.357,0,0.685,0,1,0 c4.099,0,4.999,0,11.5,0C53.508,62,60,68.492,60,76.5S53.508,91,45.5,91c-2.872,0-5.059-0.977-6.608-2.067l0.037,0.204L40,94 c21.854,0,29.897-3.881,32.21-5.399C72.4,88.852,72.692,89,73.001,89c0.136,0,0.273-0.027,0.405-0.086 c0.505-0.225,0.731-0.815,0.508-1.32c-0.038-0.085-3.69-8.41-3.903-17.771C72.911,69.143,75,66.569,75,63.5 c0-2.211-1.142-4.266-2.972-5.452c0.875-2.51,1.953-4.89,2.998-7.199C77.472,45.447,80,39.861,80,32.5z"/><path fill="#cdcbbd" d="M45.5,62c-7,0-7.5,0-12.5,0c-6,0-8.841,5.865-9,11c-1.705,0.235-3,1.73-3,3.5 c0,1.933,1.567,3.5,3.5,3.5c0.125,0,5,0,5.5,0c0,0,0.794,5.617,6,6c0,0,3,5,9.5,5C53.508,91,60,84.508,60,76.5S53.508,62,45.5,62z"/><circle cx="49.5" cy="48.5" r="11" fill="#fff"/><path fill="#fff" d="M31.5,52.5h9.581c0.894-1.601,1.419-3.48,1.419-5.5c0-5.799-4.253-10.5-9.5-10.5 s-9.5,4.701-9.5,10.5c0,3.592,1.634,6.76,4.123,8.653C28.02,53.814,29.602,52.5,31.5,52.5z"/><g><circle cx="29" cy="47" r="2" fill="#1f212b"/><circle cx="50" cy="49" r="2" fill="#1f212b"/><path fill="#1f212b" d="M49.5,60C43.159,60,38,54.841,38,48.5S43.159,37,49.5,37S61,42.159,61,48.5S55.841,60,49.5,60z M49.5,38C43.71,38,39,42.71,39,48.5S43.71,59,49.5,59S60,54.29,60,48.5S55.29,38,49.5,38z"/><path fill="#1f212b" d="M40.778,41.988C39.17,38.911,36.189,37,33,37c-1.674,0-3.315,0.524-4.746,1.518l-0.57-0.822 C29.283,36.586,31.121,36,33,36c3.563,0,6.883,2.117,8.665,5.525L40.778,41.988z"/><path fill="#1f212b" d="M68.5,69c-3.032,0-5.5-2.468-5.5-5.5s2.468-5.5,5.5-5.5s5.5,2.468,5.5,5.5S71.532,69,68.5,69z M68.5,59c-2.481,0-4.5,2.019-4.5,4.5s2.019,4.5,4.5,4.5s4.5-2.019,4.5-4.5S70.981,59,68.5,59z"/><path fill="#1f212b" d="M30,80v-1c12.217,0,17.115-1.909,17.164-1.929l0.374,0.928C47.337,78.08,42.454,80,30,80z"/><path fill="#1f212b" d="M48,81c-0.276,0-0.5-0.224-0.5-0.5c0-3.401-2.201-4.542-2.224-4.553 c-0.247-0.124-0.347-0.424-0.224-0.671c0.125-0.247,0.424-0.346,0.671-0.224c0.113,0.057,2.776,1.435,2.776,5.447 C48.5,80.776,48.276,81,48,81z"/><path fill="#1f212b" d="M45.5,92c-5.899,0-9.126-3.752-10.067-5.055c-3.854-0.525-5.658-3.724-6.246-5.945H24.5 c-2.481,0-4.5-2.019-4.5-4.5c0-1.967,1.261-3.686,3.042-4.296C23.488,66.516,26.948,61,33,61h12.5C54.047,61,61,67.953,61,76.5 S54.047,92,45.5,92z M33,63c-5.284,0-7.852,5.199-8,10.031c-0.016,0.487-0.381,0.893-0.864,0.959C22.918,74.158,22,75.237,22,76.5 c0,1.379,1.121,2.5,2.5,2.5H30c0.498,0,0.921,0.367,0.99,0.86c0.028,0.193,0.762,4.824,5.083,5.143 c0.324,0.023,0.617,0.204,0.784,0.482C36.968,85.667,39.675,90,45.5,90C52.944,90,59,83.944,59,76.5S52.944,63,45.5,63H33z"/><path fill="#1f212b" d="M66.499,65c-0.239,0-0.451-0.173-0.492-0.418c-0.012-0.07-0.279-1.747,0.604-2.79 C67.057,61.267,67.691,61,68.5,61c1.788,0,2.421,1.225,2.447,1.276c0.123,0.247,0.023,0.547-0.224,0.671 c-0.248,0.125-0.547,0.023-0.671-0.224C70.04,62.7,69.649,62,68.5,62c-0.508,0-0.876,0.144-1.126,0.438 c-0.578,0.682-0.383,1.967-0.381,1.979c0.046,0.272-0.139,0.53-0.411,0.575C66.555,64.998,66.526,65,66.499,65z"/><path fill="#1f212b" d="M69.5,66c-0.276,0-0.5-0.224-0.5-0.5c0-2.7-0.851-3.644-0.859-3.652 c-0.187-0.199-0.182-0.515,0.015-0.704c0.197-0.189,0.505-0.19,0.698,0.003C68.971,61.264,70,62.383,70,65.5 C70,65.776,69.776,66,69.5,66z"/><path fill="#1f212b" d="M67.5,20c-0.062,0-0.124-0.012-0.186-0.036c-0.256-0.102-0.381-0.393-0.279-0.649 C67.045,19.29,68,16.853,68,13.5C68,8.804,65.152,6,60.383,6c-5.888,0-7.572,5.018-7.641,5.231 c-0.085,0.263-0.366,0.41-0.629,0.323c-0.263-0.084-0.407-0.364-0.324-0.627C51.808,10.868,53.75,5,60.383,5 C65.698,5,69,8.257,69,13.5c0,3.556-0.993,6.08-1.036,6.186C67.886,19.881,67.698,20,67.5,20z"/><path fill="#1f212b" d="M73.5,25c-0.127,0-0.255-0.049-0.353-0.146c-0.195-0.194-0.196-0.511-0.002-0.707 C73.175,24.118,76,21.228,76,17c0-5.01-2.99-8-8-8c-4.595,0-5.992,2.755-6.05,2.872c-0.12,0.247-0.416,0.353-0.667,0.232 c-0.247-0.119-0.353-0.415-0.234-0.664C61.115,11.3,62.744,8,68,8c6.636,0,9,4.649,9,9c0,4.653-3.018,7.725-3.146,7.854 C73.756,24.951,73.628,25,73.5,25z"/><path fill="#1f212b" d="M40,95c-0.553,0-1-0.447-1-1c0-2.664-0.931-4.352-0.939-4.368c-0.27-0.479-0.103-1.09,0.376-1.361 c0.48-0.272,1.086-0.108,1.36,0.369C39.846,88.725,41,90.771,41,94C41,94.553,40.553,95,40,95z"/><path fill="#1f212b" d="M32,62c-2.757,0-5-2.243-5-5s2.243-5,5-5h7c0.276,0,0.5,0.224,0.5,0.5S39.276,53,39,53h-7 c-2.206,0-4,1.794-4,4s1.794,4,4,4c0.276,0,0.5,0.224,0.5,0.5S32.276,62,32,62z"/><path fill="#1f212b" d="M73.001,89c-0.384,0-0.749-0.221-0.915-0.594C71.919,88.03,68,79.096,68,69 c0-0.518,0.395-0.975,0.91-1.021C71.242,67.769,73,65.843,73,63.5c0-1.74-1.023-3.341-2.607-4.078 c-0.501-0.232-0.718-0.827-0.484-1.328c0.232-0.5,0.824-0.719,1.328-0.484C73.522,58.673,75,60.985,75,63.5 c0,3.069-2.089,5.643-4.99,6.322c0.214,9.361,3.866,17.687,3.904,17.771c0.224,0.505-0.003,1.096-0.508,1.32 C73.274,88.973,73.137,89,73.001,89z"/><path fill="#1f212b" d="M33,63h-1c-3.309,0-6-2.691-6-6c0-0.236,0.016-0.475,0.047-0.719C23.449,53.947,22,50.614,22,47 c0-3.807,1.63-7.325,4.4-9.59c-0.267-0.618-0.4-1.258-0.4-1.91c0-2.598,2.352-3.884,3.3-4.298 c0.913-1.638,5.056-9.039,6.868-11.757C39.406,14.588,42.465,10,55,10c16.413,0,25,11.319,25,22.5 c0,5.74-1.525,10.237-3.018,13.879c-0.211,0.512-0.796,0.757-1.305,0.547c-0.512-0.21-0.756-0.794-0.547-1.305 C76.55,42.159,78,37.894,78,32.5C78,22.313,70.1,12,55,12c-11.465,0-13.981,3.775-17.168,8.555 c-1.955,2.933-6.908,11.842-6.958,11.931c-0.121,0.219-0.32,0.384-0.558,0.463C30.297,32.955,28,33.762,28,35.5 c0,0.558,0.176,1.114,0.523,1.654c0.292,0.453,0.172,1.056-0.271,1.363C25.59,40.362,24,43.534,24,47 c0,3.166,1.382,6.181,3.697,8.064c0.295,0.239,0.494,0.68,0.41,1.05C28.035,56.433,28,56.722,28,57c0,2.206,1.794,4,4,4h1 c0.553,0,1,0.447,1,1S33.553,63,33,63z"/><path fill="#1f212b" d="M71.621,53.61c-0.637,1.498-1.239,3.012-1.757,4.594c-0.172,0.525,0.114,1.09,0.639,1.262 c0.104,0.034,0.208,0.05,0.312,0.05c0.421,0,0.813-0.268,0.95-0.688c0.837-2.555,1.9-4.965,3.008-7.415 c0.082-0.182,0.088-0.371,0.06-0.554l-0.012-0.061l-3.155,2.704L71.621,53.61z"/><path fill="#1f212b" d="M76.501,58c-0.019,0-0.037-0.001-0.057-0.003c-0.274-0.03-0.472-0.277-0.441-0.553l0.86-7.74 l-6.038,5.176c-0.148,0.127-0.358,0.156-0.534,0.074C70.113,54.873,70,54.695,70,54.5v-8.349l-5.084,7.626 c-0.154,0.229-0.466,0.29-0.693,0.139c-0.229-0.153-0.292-0.464-0.139-0.693l6-9c0.122-0.184,0.349-0.268,0.561-0.201 C70.855,44.085,71,44.279,71,44.5v8.913l6.175-5.293c0.156-0.134,0.378-0.156,0.559-0.063c0.182,0.097,0.286,0.294,0.264,0.498 l-1,9C76.969,57.811,76.752,58,76.501,58z"/></g></svg>