<?xml version="1.0" encoding="utf-8"?>
<!DOCTYPE svg PUBLIC "-//W3C//DTD SVG 20010904//EN" "http://www.w3.org/TR/2001/REC-SVG-20010904/DTD/svg10.dtd">
<svg version="1.0" xmlns="http://www.w3.org/2000/svg" width="1920px" height="1080px" viewBox="0 0 1920 1080" preserveAspectRatio="xMidYMid meet">
 <g fill="#231f20">
  <path d="M232 959.5 c-13.5 -0.7 -26.1 -1.8 -28 -2.4 -7.3 -2.4 -27.5 -6.1 -53.8 -10 -34.8 -5.2 -49.5 -8.2 -65.7 -13.6 -18.9 -6.3 -29.4 -11.3 -33.7 -16.5 -4.2 -4.9 -9.8 -15.2 -12.4 -23 -2.5 -7.6 -2.5 -22.5 0 -29.9 2.2 -6.5 8.7 -13.2 16.8 -17.6 2.9 -1.5 8 -5.4 11.3 -8.5 11 -10.4 20 -13.5 37.4 -12.7 9.5 0.4 14.5 1.2 27.1 4.7 15.5 4.1 15.5 4.1 41.5 5 35.9 1.1 132.9 1.5 144.6 0.6 6.1 -0.5 12.7 -0.4 18.2 0.3 7 1 11 0.9 22.4 -0.5 7.6 -0.9 14.1 -1.9 14.5 -2.3 1.6 -1.5 -18.1 -17.7 -36.7 -30.1 -19.1 -12.8 -31.5 -19.7 -94.5 -52.5 -46.6 -24.4 -75.7 -42.6 -91 -57 -4.2 -3.9 -9.3 -7 -21 -12.7 -16.8 -8.1 -24.8 -14 -51.5 -37.9 -42 -37.6 -64.4 -71.5 -72.7 -110.2 -3.1 -14.7 -3.1 -40.8 0.1 -55.7 6.9 -32.6 20.7 -59.4 44.2 -85.9 10.3 -11.6 22.2 -22 44.9 -39.1 28.3 -21.3 41.1 -29.6 67.5 -43.8 26.8 -14.3 90.9 -43 112.6 -50.2 21.1 -7.1 45.8 -12.4 69.1 -14.9 14.3 -1.6 45.8 -1.4 59.1 0.4 50.7 6.6 90.6 30.8 111.6 67.4 3.2 5.6 3.8 7.5 3.9 13.1 0.1 3.6 1.3 13.5 2.7 22 1.4 8.5 2.5 18.6 2.5 22.5 0 13.3 -4.2 23.9 -12.7 32.2 -3.6 3.5 -5.2 4.3 -8.2 4.3 -3.3 0 -4.1 0.6 -7.5 5.2 -6.3 8.6 -8.9 10.2 -17.2 10.6 -16.5 0.9 -26.8 -7.6 -34.2 -28.2 -6.4 -17.6 -9 -21.1 -18.2 -24.4 -3 -1.1 -9.1 -3.4 -13.5 -5.2 -21.8 -8.8 -51.3 -10.1 -91.5 -4 -28 4.3 -47 8.9 -82.4 20.1 -35 11 -35.2 11.1 -61.1 24.1 -34.6 17.3 -40.7 21 -46.5 27.9 -8.7 10.4 -11.1 15.7 -17.4 38.9 -6.7 24.2 -3.4 44.1 10.7 65.4 8.7 13 29.5 33.4 58.2 56.9 13.2 10.8 28.1 23.3 33 27.9 14.4 13.2 44.9 32.5 113.5 71.8 62.5 35.7 93.8 55 120.5 74.3 15.3 11.1 20.3 16.8 28 32.1 4.5 8.8 4.5 8.8 4.5 -3 0 -18.2 4.4 -42.2 11.6 -63.9 2.6 -8 2.6 -8 3.4 -70 0.8 -67.7 1.3 -73.7 7.8 -100.5 2.8 -11.5 2.8 -11.5 11.3 -11.8 8.5 -0.3 8.5 -0.3 10.3 -7.6 1.9 -7.3 1.9 -7.3 13.5 -8 17.6 -0.9 24.2 1.5 31.6 11.8 8.9 12.6 12.6 23.6 17 51.1 1.4 8.8 3.2 18.5 4 21.6 2.3 8.6 3.8 29.2 3.1 41.4 -1 16.5 -2.3 26.2 -7.6 58 -7.2 43.1 -8.4 59.8 -5.6 80 1.2 9 1.2 9 -2.8 16.9 -5 10 -12.9 18.6 -20.5 22.4 -3.2 1.6 -7.7 5 -10.1 7.5 -2.7 3 -7.1 6.1 -11.8 8.5 -7.5 3.6 -7.8 3.7 -19.2 3.7 -6.9 0 -12.3 -0.5 -13.6 -1.2 -3.1 -1.8 -10 -11.2 -13.9 -19 -3.5 -6.8 -3.5 -6.8 -3.5 1.8 0 26.4 -16.8 54 -46.4 76.4 -6.1 4.6 -14.7 11.1 -19.1 14.5 -9.4 7.1 -28.3 16.8 -41 20.9 -10.9 3.5 -25.3 6.7 -39.5 8.8 -14.3 2 -75.5 2.5 -108 0.8z m128.2 -27.4 c38.9 -6 66 -18.2 86.8 -39.1 19.7 -19.8 30.3 -42.2 28.5 -60.5 -1.3 -14 -9.5 -33.2 -19.1 -44.9 -3.6 -4.2 -14.1 -12.1 -35.9 -26.6 -23.9 -15.9 -42.1 -26.9 -94 -56.7 -79.1 -45.5 -105.4 -62.2 -122 -77.4 -5.5 -5.1 -18.8 -16.4 -29.5 -25.1 -42.1 -34.4 -56.2 -49.2 -66.7 -69.3 -7.5 -14.5 -8.8 -20.5 -8.8 -40 0 -14.9 0.3 -18 2.4 -25 1.3 -4.4 2.9 -10.6 3.7 -13.7 4.7 -19.4 18.2 -36.6 40.7 -51.6 5.4 -3.6 23.4 -13.4 40 -21.8 30.2 -15.4 30.2 -15.4 66.7 -26.9 37.4 -11.8 55.8 -16.3 84 -20.5 29.1 -4.3 53.3 -5.1 73.2 -2.5 13.4 1.8 21.8 4 32.5 8.8 4.3 1.9 9.3 3.8 11.2 4.2 7.6 1.6 13.3 9.7 20.5 29.1 5.2 14 11.9 21.1 20.9 22.1 4.2 0.5 4.5 0.3 8.9 -4.6 8.4 -9.3 9.8 -19.1 5.9 -41.1 -1.2 -6.3 -2.4 -15.1 -2.7 -19.5 -0.7 -9.3 -3.1 -14.3 -12.4 -25.8 -29.8 -37.5 -83.1 -56.2 -144 -50.6 -36 3.2 -66.8 11.5 -104.5 27.9 -77.1 33.5 -113 53.5 -145.1 80.4 -42.9 36 -67.5 82.5 -67.5 127.6 0 48.5 27.3 92.7 89.6 144.8 16.1 13.5 17.8 14.7 33.3 22.2 12.8 6.3 17.5 9.2 22.5 13.8 16.6 15.4 46.1 33.4 103.7 63.2 70 36.2 97.1 53.7 124.8 80.9 8.6 8.4 9.2 9.3 9.2 13 0 3.9 -0.1 4.1 -6.3 7 -20 9.5 -49.4 13.6 -87.2 12.1 -5.8 -0.2 -10.8 0 -12 0.6 -1.4 0.7 -27.1 0.7 -83.5 -0.2 -81.5 -1.2 -81.5 -1.2 -99.8 -5.8 -21.6 -5.4 -27.1 -6.2 -34 -4.7 -11.6 2.5 -22.8 10.6 -25.1 18.1 -2.8 9.5 -0.4 21.7 6.4 33 4.5 7.4 6.7 9.3 15.9 13.6 19.6 9 39.3 13.8 83.1 20.4 28.4 4.2 43.4 7 52.5 9.6 8.2 2.4 49.1 4.3 87 3.9 27 -0.3 34.8 -0.7 46.2 -2.4z m192 -105.3 c6.4 -3.4 11.4 -8.5 15.7 -16.1 2.8 -4.7 2.8 -4.7 2.3 -26.5 -0.5 -25.2 0 -31 6.8 -72.3 2.7 -16.2 5.4 -34.6 6.1 -40.8 1.6 -15.3 0.7 -38.1 -1.9 -49.7 -1.2 -4.9 -3.1 -15.1 -4.2 -22.5 -3.9 -24.8 -8.6 -38.4 -16.6 -47.8 -4.8 -5.5 -8.6 -7.1 -17.3 -7.1 -6.9 0 -6.9 0 -9 8.8 -5.8 24.9 -7.6 48.6 -6.7 90.2 0.4 17.5 0.2 38.7 -0.4 49.8 -0.9 17.5 -1.3 20.4 -4.4 30.6 -4.9 16 -8.5 32.9 -9.8 45.7 -2.1 20.1 1.9 38.3 11.6 52.8 5.7 8.5 7.3 9.3 16.5 8.5 3.5 -0.3 7.6 -1.6 11.3 -3.6z"/>
  <path d="M1676.3 865 c-5.4 -1.3 -12.2 -5.9 -16.4 -11.2 -6.2 -7.9 -7.9 -11.9 -7.9 -18.6 0 -18.7 8.5 -34 23.5 -42.7 2.8 -1.6 7.5 -5.2 10.6 -8 10.6 -9.7 19.4 -13.5 44.9 -19.6 9.1 -2.2 19.4 -4.9 22.9 -6.1 6.7 -2.4 15.1 -8.8 15.1 -11.6 0 -3.1 -11.3 -18.5 -20 -27.3 -4.7 -4.7 -15.7 -14.8 -24.5 -22.4 -20.1 -17.4 -32.6 -30.2 -37.3 -38.1 -3.7 -6.1 -3.7 -6.1 -3.8 12.5 -0.2 32.5 -5.7 52.8 -19.4 71.6 -5.1 6.9 -19.3 20.1 -22.6 20.9 -1.5 0.4 -6.3 4 -10.7 8.1 -7.5 7 -8.3 7.5 -15.5 9.1 -8.8 2 -20 1.5 -27.6 -1.2 -4.6 -1.6 -17.9 -10 -25.3 -16 -3.2 -2.6 -3.2 -2.6 -4.7 0.9 -6.8 16.5 -14.1 25.9 -23.4 30.3 -3.5 1.7 -7.6 4.8 -10.5 8 -9.4 10.4 -20.3 13.2 -36.1 9.4 -5.1 -1.2 -9.9 -2.5 -10.5 -2.9 -1 -0.7 -1 -2.9 1.3 -34.6 0.5 -5.9 0.5 -5.9 -3.1 -1.5 -5.8 7.2 -14.9 15.5 -23.7 21.5 -4.4 3.1 -10.8 7.9 -14.1 10.6 -9.9 8.3 -19.7 12.4 -36.5 15.4 -28.1 4.9 -51.6 5.1 -67 0.5 -8.1 -2.4 -20.5 -10.4 -26.2 -17 -8.3 -9.5 -14.6 -22.1 -18.4 -36.8 -1 -4 -2.1 -7.1 -2.5 -7 -0.3 0.2 -3 3.2 -6 6.8 -3 3.5 -9.3 9.2 -13.9 12.7 -4.7 3.4 -11.2 8.5 -14.6 11.2 -21.8 17.7 -45.1 26.5 -83.4 31.6 -20.4 2.7 -24.9 2.5 -36.5 -1.6 -23.5 -8.4 -29.1 -13.5 -33.3 -30.4 -3 -12.1 -3.3 -14.5 -2.2 -20.8 2 -12.6 9.6 -23.5 19.9 -28.4 3.4 -1.6 7.5 -4.8 10.4 -7.9 6.7 -7.4 13.1 -10.3 22.8 -10.2 4.1 0 9.5 -0.5 11.9 -1.1 7.1 -1.8 19 -6.2 19 -7 0 -0.5 -4.5 -5.9 -10 -12.1 -12.7 -14.3 -21.2 -24.8 -26.4 -32.7 -2.3 -3.5 -4.3 -6.3 -4.7 -6.3 -0.3 0 -1.3 2.1 -2.2 4.8 -3.4 9.3 -13.6 20.5 -23.2 25.4 -2.2 1.2 -6.4 4.5 -9.4 7.4 -12.6 12.6 -34.4 18.4 -69.7 18.4 -6.7 0 -15.5 0.3 -19.7 0.6 -7.7 0.7 -7.7 0.7 -7.7 6.1 0 3 1 10.2 2.1 16 2.1 10.5 2.1 10.5 -0.2 15.4 -3 6.5 -10.1 13.6 -16.9 16.9 -3 1.5 -8.2 5.4 -11.6 8.7 -7.4 7.4 -14.3 10.3 -25.9 11 -10.2 0.7 -15.1 -0.7 -20.9 -5.8 -8.5 -7.5 -11.8 -15.4 -15.6 -37.4 -2.3 -13.2 -4.6 -19.8 -7.5 -20.9 -0.9 -0.3 -4.9 -0.6 -8.9 -0.6 -7.3 0 -7.3 0 -7.9 18.8 -0.5 15.8 -3.3 43.8 -5.3 53.4 -0.7 3.6 -11 13.7 -17.5 17.2 -3 1.6 -8.2 5.5 -11.6 8.8 -8.4 7.9 -15.8 11.3 -33.5 15.2 -2.5 0.6 -3.2 0 -7.4 -5.6 -5.5 -7.5 -11.6 -20 -14.1 -28.8 -1.4 -5.2 -1.8 -10.1 -1.8 -24 0.1 -17.7 0.1 -17.6 7 -59.3 0.4 -2.7 0.3 -2.6 -5.6 2.3 -3.3 2.7 -7.3 5.6 -8.8 6.4 -1.5 0.8 -6.3 4.4 -10.7 8.1 -4.3 3.6 -11.5 8.4 -15.9 10.6 -8.9 4.5 -10.7 4.6 -22.2 0.8 -13.5 -4.4 -25.1 -15 -33.4 -30.3 -4.6 -8.6 -4.6 -8.6 -5.2 14.1 -0.5 16.2 -1.3 25.4 -2.6 31.9 -3.9 19.1 -15.4 35 -27.2 37.9 -1.5 0.4 -4.1 2.6 -5.9 5 -6.1 8.2 -13.6 11.8 -24.7 11.7 -13.2 0 -24.8 -7.6 -37.3 -24.4 -5.8 -7.7 -5.8 -7.7 -4.9 -12.5 2 -10.5 4.9 -38.2 6.9 -65.3 2.3 -32.1 4.4 -52.8 6.6 -67.5 5.8 -37.5 17.7 -67.4 37.1 -93.2 5 -6.6 5.8 -7.3 9 -7.3 4.9 0 6.4 -1.1 12.3 -9 5 -6.7 5.4 -7 9.3 -7 2.3 0 8.7 -1.1 14.2 -2.5 18.8 -4.7 28.5 -2.7 39.1 8 6.2 6.1 15 18.7 19.6 28 2 4 11 26.7 14.2 36 0.6 1.5 1.5 0.1 4.4 -6.6 7.8 -18 16.4 -28.9 26.9 -34.2 2.8 -1.5 7.5 -5 10.4 -7.8 11 -10.7 25.6 -14.8 42.4 -11.9 7.4 1.3 7.7 1.5 12.6 6.9 2.7 3.1 7 9.7 9.4 14.6 6.7 13.5 7.9 22 7 51 -0.6 19.4 -0.4 24.6 1.1 33.5 0.9 5.8 1.8 10.6 1.9 10.8 0.2 0.2 2.4 -1.1 5.1 -2.7 2.6 -1.7 5.3 -3.1 5.8 -3.1 0.6 0 3 -2.2 5.3 -4.9 2.7 -3.2 6.7 -6.1 11.5 -8.6 7.3 -3.8 7.3 -3.8 7.4 -17.4 0.1 -27.8 7 -47.8 30.6 -88.8 11.1 -19.5 11.1 -19.5 16.7 -21.9 9.2 -3.9 10.4 -4.7 13 -9.2 2.4 -4 3.5 -4.7 14.6 -9.3 25.6 -10.6 38.6 -12.9 53.9 -9.4 6.7 1.4 9.4 2.8 19.4 9.5 24.9 16.8 40.7 34 52.2 56.9 4.1 8.3 4.1 8.3 7.9 1.8 9.1 -15.5 21.3 -28.1 44.1 -45.4 21.1 -16.2 34.8 -25.1 53.5 -35.1 16 -8.5 23.8 -11.4 37.3 -13.7 35.2 -6.2 57.9 6.4 63.8 35.2 3.9 18.8 -2.2 33.2 -17 40.2 -3.8 1.9 -7.5 4.6 -9.7 7.3 -3.9 4.6 -12.6 9.9 -19.6 11.7 -2.3 0.6 -9.2 2 -15.5 3.1 -14.6 2.6 -20.2 4.5 -24.4 8.2 -2.6 2.3 -4.1 2.9 -6.4 2.6 -2.7 -0.4 -3.3 0.1 -7.6 6.6 -5.3 8 -5.7 11.2 -2.8 21.6 3.3 11.6 10.3 22.2 31.3 47.5 14.4 17.2 25.1 32.1 29.2 40.8 1.3 2.6 2.5 4.7 2.8 4.7 0.9 0 17.7 -26.2 21 -32.7 5.5 -10.7 7 -20.3 5.2 -31.4 -0.7 -4.4 -0.6 -4.7 2.5 -6.8 1.8 -1.2 7.5 -6.8 12.7 -12.4 6.2 -6.7 11.3 -11.2 14.8 -13.1 3 -1.6 8.2 -5.5 11.5 -8.6 15.3 -14.2 28.7 -14.2 43.9 -0.1 8.5 7.9 15.8 11.7 25.7 13.3 5 0.8 8.9 2.2 12.3 4.3 16.6 10.5 31.4 28.3 40.1 48.3 3.2 7.3 3.2 7.3 3.9 2 1.4 -11.3 9.8 -22.4 19 -25.1 3.1 -0.9 5.2 -2.4 7.7 -5.7 1.8 -2.4 5.6 -5.8 8.3 -7.5 4.5 -2.8 5.6 -3 14 -3 9.1 0 9.1 0 23.6 7.1 7.9 4 15.6 7.5 17.1 7.8 3.5 0.8 13.5 10.1 18.3 17.1 2.1 3 4 5.5 4.1 5.5 0.6 0 -0.7 -6.4 -2.8 -13.5 -1 -3.8 -6.2 -17.6 -11.3 -30.5 -12.6 -31.7 -14.7 -39.7 -14.9 -57 -0.1 -18 1.4 -24.9 6.8 -30.9 4.2 -4.5 10.4 -8 14.4 -8.1 1.3 0 2.2 -0.6 2.2 -1.5 0 -2.8 7.9 -10.2 13.2 -12.5 6.6 -2.8 13.6 -2.4 22.8 1.5 3.6 1.5 8.5 3.3 11 3.9 3.9 1 5.2 2.2 9.8 8.1 7.4 9.9 13.7 23.2 20.8 43.9 6.1 18 6.1 18 9.3 7.9 6.7 -21.6 18 -39.2 36.3 -56.8 9.3 -8.9 40.4 -33.4 61.6 -48.5 4.3 -3 10.3 -7.6 13.5 -10.2 15.8 -12.9 34.4 -18.7 56 -17.5 25.5 1.4 47.5 13.1 60 31.7 3.4 5.1 3.7 6 3.7 12.7 0 4 1.1 14.1 2.5 22.5 1.4 8.4 2.5 17.4 2.5 20.1 0 17.2 -10.8 34.9 -22.1 36.4 -2.1 0.3 -3.9 0.9 -3.9 1.4 0 0.5 -2.7 3.7 -6 7.2 -5.6 6 -6.4 6.5 -11.4 7.1 -7 0.9 -16.9 -0.9 -22.9 -4.2 -2.7 -1.4 -7.2 -5.1 -9.9 -8.1 -5.1 -5.6 -5.1 -5.6 -4.4 -18.4 0.7 -12.8 0.7 -12.8 -4.6 -12.1 -7.9 0.9 -16.7 3.3 -22.5 6.1 -13.8 6.5 -29.7 36.7 -31 58.8 -0.5 9 -0.5 9 4.5 15.5 6.3 8.3 16.7 18.2 36.2 34.4 29.4 24.5 43.3 40.6 50.2 58.1 2.6 6.7 3.2 9.8 3.6 18.8 0.6 13.2 -1.1 21.3 -7.2 34.2 -9.4 19.7 -32.6 44.6 -62.6 67.1 -21.9 16.3 -30.7 22 -45.5 29 -19.3 9.1 -39 14.4 -61.1 16.3 -13.3 1.2 -14.6 1.2 -19.1 0.1z m59.2 -29.5 c41.9 -9.4 79.7 -34.4 108.7 -71.9 11.7 -15.1 18.5 -32.8 17.4 -44.9 -1.4 -14.1 -10 -29.7 -24.8 -44.8 -4.6 -4.7 -16.8 -15.7 -27.3 -24.6 -20.8 -17.5 -35.6 -32.3 -39.9 -39.5 -6.8 -11.7 -3.5 -34 8.8 -59.3 4.3 -8.7 7 -12.7 13 -19.1 9.7 -10.4 19.9 -18.2 30.6 -23.3 10.7 -5.1 18 -7 30 -7.7 8.8 -0.6 9.7 -0.5 12.3 1.6 2.9 2.3 2.9 2.3 2.5 15.8 -0.3 13.4 -0.3 13.4 4.8 18.1 5.4 4.9 10.6 7.1 17.1 7.1 3.2 0 4.5 -0.7 7.5 -3.7 9.1 -9.5 10.5 -18.8 6.4 -43.3 -1.4 -8.5 -2.6 -17.5 -2.6 -20.1 0 -4 -0.6 -5.5 -3.9 -9.6 -12.5 -15.9 -32.9 -25.6 -53.6 -25.6 -16.7 0 -30.3 5.3 -46 17.8 -5.5 4.4 -15 11.6 -21 16 -23.9 17.2 -36.9 29.1 -47.1 42.8 -24.8 33.3 -30.3 80.4 -13.4 115.2 4.7 9.7 15.4 21.2 39.5 42.1 26.2 22.7 37.4 35.1 44.4 49.1 5.1 10.2 4.8 11.3 -7.1 23 -17.3 16.8 -24.2 20.3 -54.6 27.9 -37.4 9.2 -48.7 17.3 -52.8 37.8 -1.6 7.5 -1.6 7.5 1.1 12.5 3 5.5 7.4 10.1 12 12.6 4.4 2.4 22.6 1.5 38 -2z m-873 -23 c4.1 -2 8.9 -5.4 11.7 -8.2 5.4 -5.5 5.7 -6.3 8.3 -29.3 4.1 -35.8 2.4 -84.1 -4.1 -115.9 -1.1 -5.7 -1.5 -14.1 -1.3 -36.5 0.1 -32.4 -0.3 -35.2 -6.6 -48.1 -4.7 -9.6 -10.5 -15.2 -17.3 -16.5 -10.7 -2 -21.6 2.3 -30.8 12.3 -7.2 7.8 -13.5 21 -21.9 45.7 -3.6 10.7 -7.8 22 -9.3 25 -2.7 5.4 -2.8 5.5 -7.1 5.5 -4.2 0 -4.6 -0.3 -7.2 -4.5 -3.3 -5.4 -10 -21.5 -17 -40.5 -8.6 -23.5 -16.4 -37.5 -27.1 -48.5 -8.2 -8.5 -14.3 -9.8 -27.8 -6.1 -4.1 1.2 -9.1 2.1 -11.2 2.1 -3.3 0 -4.2 0.6 -7.7 5.3 -16.4 21.8 -27.4 47.7 -33.5 79.3 -3.3 17.3 -5.2 33.5 -7.6 66.4 -2.5 34.5 -3.7 47.4 -5.6 62.2 -1.6 11.7 -1.6 11.7 1.4 16 7.4 10.7 20.9 20.8 27.9 20.8 11.4 0 21.7 -11.8 26.9 -30.5 1.2 -4.4 1.8 -13.3 2.4 -33.5 0.7 -23.4 1.2 -28.7 3 -35.5 1.7 -6.1 2.4 -12.6 3 -27 0.9 -20.5 1.3 -23 4.1 -28.7 2.2 -4.4 4.5 -5.8 9.2 -5.8 3.4 0 3.6 0.2 6.5 7.3 1.6 3.9 5.5 15.5 8.6 25.7 7.7 24.9 13.7 37.3 22.6 46.2 7.5 7.5 17.9 13.2 24 13.2 6.4 0 20.8 -10.6 30.8 -22.8 6.3 -7.6 16.1 -22.1 20.2 -29.9 2.4 -4.5 2.7 -4.7 6.7 -4.7 4.2 0 4.2 0 4.7 4.3 2.1 17.6 1.2 33.7 -3.6 62.2 -4.2 24.7 -4.5 40.3 -1 51.5 2.7 8.3 6 15.4 10.4 21.8 3.4 5 4.3 5 15.3 -0.3z m327 -15.5 c38.3 -5.6 62.6 -15.9 79.9 -34 12.3 -12.9 19.4 -30.1 18.3 -44.5 -1.3 -17.8 -9.5 -32.3 -37.2 -65.5 -25.7 -30.9 -33.5 -46 -33.5 -65.4 0 -7 0 -7 7.7 -18.6 12.3 -18.3 17.7 -22.8 28.7 -23.8 4.1 -0.3 7.2 -1.3 9.6 -2.9 4.5 -3 10.2 -4.7 27 -7.7 16.4 -3.1 24.8 -6.8 29.4 -13.3 3.5 -5.1 4.5 -12.5 2.6 -20.5 -4.8 -20.2 -21.7 -30.9 -44.1 -27.8 -14.4 2 -22.7 4.7 -37.3 12.3 -43.6 22.8 -67 43.4 -80.6 71.2 -11.1 22.7 -10.4 44.3 2.4 71 8.1 16.8 17.4 29.9 37.9 53 5.4 6 11.9 14.1 14.5 18 4.1 6.1 4.7 7.7 5 13.3 0.6 8.9 -0.4 9.8 -12.1 10.5 -7.7 0.4 -11.9 1.4 -26.1 6.2 -14.5 4.9 -18.3 5.8 -26.5 6.2 -11.3 0.6 -16.1 2.8 -21 9.4 -6 8.3 -7.1 15 -4.1 26.4 3.2 12.7 7.5 17.7 18.9 21.9 20.5 7.6 20.1 7.5 40.6 4.6z m228.5 -1.5 c19.3 -3.6 26.8 -7.4 40.4 -20.4 15.8 -15.2 22.7 -29.2 24.7 -50.3 2.6 -26.7 -3.8 -55.9 -16.9 -78.2 -8.5 -14.3 -30.2 -34.6 -37.1 -34.6 -4.4 0 -15.6 -3.5 -20.7 -6.5 -2.7 -1.6 -7.8 -5.7 -11.5 -9.1 -13.7 -12.8 -17.7 -11.7 -39.1 11.4 -6.8 7.2 -6.8 7.2 -6.8 15.5 0 15.3 -3.2 23.6 -17.8 46 -11.2 17.1 -14.1 22.5 -17.1 31.5 -3.8 11.7 -3.7 16.2 0.3 32.3 5.1 19.9 7.2 26.1 12 35.4 7.4 14.5 21.3 25.7 35.9 29 10.1 2.3 35.8 1.4 53.7 -2z m110.7 -9.7 c5.9 -2.7 10.7 -8.7 16 -19.8 11.7 -24.7 12.7 -26.5 17.4 -31.2 4.1 -4.1 5.4 -4.8 8.7 -4.8 5.1 0 11.2 3.3 23.7 12.8 13.9 10.5 21 13.7 30 13.6 8.9 -0.1 12.6 -1.7 20.4 -8.9 14.6 -13.6 23.2 -30.8 26.7 -53.5 1.2 -7.8 1.3 -17.8 0.8 -55 -0.6 -45.5 -0.6 -45.5 -7.9 -67.1 -8.2 -24.3 -12.4 -34.7 -17.3 -43.4 -5.3 -9.4 -9.4 -14.3 -12.5 -14.9 -1.5 -0.3 -5.9 -1.9 -9.7 -3.6 -7.6 -3.3 -10.8 -3.7 -14.8 -1.6 -5.1 2.7 -7 5.7 -8.8 14.6 -3.1 15.4 0.1 29.5 14.6 65.7 11.9 29.5 14 37.6 14 54.7 0 14.5 -1.1 19.8 -6.2 30.4 -3.1 6.2 -3.1 6.2 -9.5 6.2 -10.4 0 -12.6 -1.8 -25 -20.5 -8.8 -13.2 -14.1 -18.6 -19.9 -20.5 -2.2 -0.7 -8.4 -3.6 -13.9 -6.5 -5.5 -2.9 -12.6 -6.1 -15.8 -7 -5.8 -1.7 -5.9 -1.7 -10.4 0.7 -6.9 3.5 -10.1 8.8 -11.8 18.9 -3.2 19.8 -4.7 41.1 -7.5 107.4 -0.6 13.2 -1.3 26.1 -1.6 28.7 -0.6 4.7 -0.6 4.7 3.3 5.7 8.8 2.2 10.1 2.1 17 -1.1z m-545.5 -17.8 c4.9 -1.4 11.6 -6.6 15 -11.5 2.7 -4 2.7 -4 1.3 -10.5 -0.8 -3.6 -1.5 -11.9 -1.5 -18.6 0 -10.9 0.2 -12.5 2.6 -17.2 1.7 -3.5 4 -6 7 -8.1 7.3 -4.8 15.8 -6.2 44.9 -7.2 14.9 -0.5 29.8 -1.5 34.9 -2.4 19.4 -3.4 32.3 -11.9 39.1 -25.9 3.1 -6.4 3.5 -8.4 4.6 -21.1 3.1 -37.7 -4.7 -70.8 -23.4 -98.5 -7 -10.3 -20.3 -23.8 -32.6 -33.1 -25.4 -19.1 -33.5 -19.7 -69.1 -5.1 -9.5 3.8 -9.5 3.8 -17.9 18.3 -24.7 42.4 -31.6 62.8 -31.3 92.9 0.3 21.6 -1 23.5 -19.3 29.6 -9.2 3.1 -15.7 6.2 -19.9 9.7 -2.9 2.3 -3 2.7 -2.8 10.8 0.1 9.2 2.6 20.3 6.5 29.2 2.6 5.7 2.6 5.7 8.4 5.7 12.7 0 16.7 5.6 20.8 29.5 2.8 16.1 5.2 22.8 10.6 28.9 5.7 6.6 11.2 7.7 22.1 4.6z"/>
  <path d="M1377.3 742.3 c-1.2 -0.2 -3.4 -1.8 -4.8 -3.4 -2.3 -2.9 -2.5 -3.8 -2.5 -13.7 0 -25.9 6.8 -46.6 19 -57.6 5.3 -4.8 7.6 -5.6 16.2 -5.6 8.9 0 13.8 2.2 20.3 9.1 4.7 5 9.5 13.7 9.5 17.4 0 1.1 -1.3 6.3 -2.9 11.5 -1.7 5.2 -4.2 13.5 -5.7 18.4 -4.9 16.2 -10.8 21.8 -24.5 23.6 -7.4 0.9 -20.4 1.1 -24.6 0.3z m17.4 -10.7 c0 0 1.9 -6.2 4.2 -13.6 4 -13.5 4 -13.5 1.6 -17.6 -2.7 -4.6 -9.8 -11.4 -11.9 -11.4 -3.1 0 -7.6 19 -7.9 33.1 -0.2 9.1 -0.2 9.3 2.3 10 1.9 0.6 10.8 0.2 11.7 -0.5z"/>
  <path d="M1020.5 645 c-1.7 -0.5 -4.4 -2.3 -6 -4 -2.9 -3 -2.9 -3 -1.7 -21.5 1.4 -20.6 3.2 -31.8 6.7 -41.2 3 -7.8 9.3 -17 14.7 -21.3 3.7 -3 4.4 -3.2 9.3 -2.7 9.4 1 20.1 8 26.6 17.3 4.6 6.8 10.3 18.9 15.3 32.7 9.1 25.3 6.1 31 -19.3 36.2 -4.6 0.9 -10 2.3 -12.1 3 -4.6 1.6 -29.5 2.7 -33.5 1.5z m30.8 -12.2 c5.8 -1.5 5.8 -1.4 -0.3 -17 -5.3 -13.3 -10.7 -22.3 -16.6 -27.8 -4.8 -4.4 -4.8 -4.4 -6.1 -1.2 -2 4.9 -4.3 20.4 -5 34 -0.5 10.1 -0.4 12.6 0.8 13.4 1.9 1.2 21 0.3 27.2 -1.4z"/>
  <path d="M1846 816 c0 -8 0 -8 -3 -8 -2 0 -3 -0.5 -3 -1.5 0 -1.2 1.5 -1.5 7.5 -1.5 6 0 7.5 0.3 7.5 1.5 0 1 -1 1.5 -3 1.5 -3 0 -3 0 -3 8 0 6.4 -0.3 8 -1.5 8 -1.2 0 -1.5 -1.6 -1.5 -8z"/>
  <path d="M1858 814.5 c0 -9.4 0 -9.5 2.4 -9.5 2.2 0 2.6 0.7 4.1 7.6 1.9 8.6 2.7 8.4 4.6 -1.3 1.1 -5.6 1.5 -6.3 3.6 -6.3 2.2 0 2.3 0.2 2.3 9.5 0 5.7 -0.4 9.5 -1 9.5 -0.6 0 -1 -3.3 -1 -8 0 -4.4 -0.4 -8 -0.8 -8 -0.5 0 -1.4 3 -2.2 6.8 -1.6 8.5 -1.9 9.2 -3.5 9.2 -0.9 0 -2.1 -3.1 -3.3 -8.2 -2 -8.3 -2 -8.3 -2.1 0 -0.1 6.6 -0.4 8.2 -1.6 8.2 -1.2 0 -1.5 -1.7 -1.5 -9.5z"/>
  <path d="M906.5 436.1 c-8.7 -2.1 -16.2 -8.4 -20.1 -16.6 -4.5 -9.5 -7.2 -28.3 -8.3 -57.5 -0.6 -15.4 -0.6 -15.4 -3.8 -16.1 -6.2 -1.2 -11.4 -5.8 -14.6 -12.9 -1.7 -3.6 -2.1 -6.7 -2.2 -15.5 -0.1 -6 -0.5 -12.8 -0.9 -15.1 -0.8 -4.1 -0.8 -4.1 3.5 -5.8 7.7 -3.1 13.8 -7.7 17.4 -13 3.7 -5.6 6.8 -12.3 6.3 -13.6 -0.4 -1 -14 7.9 -18.3 11.9 -9.8 9.2 -24.7 16.6 -37.3 18.5 -5.1 0.7 -9.4 1.5 -9.6 1.7 -0.2 0.2 -1.4 23.7 -2.6 52.3 -2.4 51.9 -2.4 51.9 -7.9 56.3 -3.1 2.4 -7.7 5.4 -10.3 6.6 -2.7 1.2 -4.8 2.7 -4.8 3.4 0 1.8 -9.9 9.3 -16.5 12.4 -4.9 2.4 -7.3 2.9 -13 2.9 -9.7 -0.1 -15.3 -3.2 -21.5 -12 -4.5 -6.5 -4.5 -6.5 -4.5 -53 -0.1 -44.1 -0.2 -46.9 -2.2 -54.3 -1.1 -4.3 -2.5 -8.2 -2.9 -8.7 -0.5 -0.4 -9.2 -1.3 -19.4 -1.9 -40.1 -2.4 -54.1 -7 -70.2 -23.2 -8.6 -8.8 -8.6 -8.8 -7.1 -15.6 3.4 -15 10.2 -25.1 20.4 -30.2 3.5 -1.7 8.4 -5.4 11.4 -8.6 11.7 -12.2 23.7 -14 52.5 -8.1 9.6 1.9 19.3 3.7 21.4 3.8 3.9 0.3 3.9 0.3 5.1 -4.9 1.8 -7.8 6.7 -17.1 12.5 -23.6 5.8 -6.4 16.6 -15.1 17.8 -14.3 0.5 0.3 2.4 -1.1 4.3 -3 1.9 -2 6 -5.6 9.2 -8.1 5.3 -4.1 6.1 -4.4 9.8 -3.8 10.8 1.8 23.6 12.2 28.6 23.2 3.2 6.9 3.3 13.7 0.3 21.4 -1.1 3 -2 5.8 -2 6.3 0 1.7 9.7 -0.5 24 -5.4 15.9 -5.5 24.4 -6.4 32.5 -3.5 4.5 1.6 5.5 0.9 5.5 -4.2 0 -9.7 5.3 -27.1 9.8 -32.5 2.9 -3.5 9.4 -6.7 13.3 -6.8 2.2 0 3 -0.8 4.2 -3.8 2 -5 7.6 -9.8 12.9 -11.3 12 -3.2 26.3 4.2 32.4 16.8 2.6 5.3 2.7 5.8 2 17.6 -0.3 6.7 -1.5 21.6 -2.6 33.2 -2 20.9 -2.4 39 -1.2 47.5 0.7 4.2 0.9 4.5 4.1 4.8 4.1 0.4 5.1 -0.8 5.1 -6.8 0 -2.5 1.5 -14.8 3.2 -27.5 2.7 -20 3.2 -26.2 3.3 -47.8 0.2 -24.8 0.2 -24.8 3.3 -28.6 3.1 -3.9 12 -9.1 15.4 -9.1 1 0 1.8 -0.6 1.8 -1.4 0 -2.8 9.8 -11.4 15.1 -13.1 12.7 -4.2 27.7 3.9 35.5 19.2 2.9 5.7 2.9 6 2.8 21.8 -0.1 10.5 -0.8 21.5 -2.3 32 -2.5 18.3 -3.9 44.6 -2.3 43 0.5 -0.5 2.7 -5 4.7 -10 6.1 -14.9 15.2 -32.3 23.3 -44.5 8.9 -13.5 24.7 -30 36.2 -37.8 4.1 -2.9 11.3 -8.1 16 -11.7 10.4 -8 20.6 -13.4 33.1 -17.6 8.2 -2.8 10.3 -3.1 17.4 -2.7 9.7 0.6 15.2 2.9 29.2 12.1 13.2 8.7 15.9 11.6 22 23.3 14.5 27.9 17.9 56.9 9.8 85 -4.4 14.9 -6.5 18.4 -19.9 31.7 -6.6 6.8 -15 14.3 -18.5 16.7 -3.5 2.5 -9.6 7 -13.5 10.1 -15.6 12.2 -28.7 19.6 -43.9 24.5 -8.4 2.7 -8.6 2.9 -6.2 4.1 1.4 0.8 7.1 3 12.7 4.9 5.7 2 11.5 4.2 13 5 2.1 1.1 4.2 1.2 10 0.4 21.4 -2.7 36.1 -9.1 66.3 -29 18 -11.8 18 -11.8 34.3 -9.2 16.2 2.6 16.2 2.6 17.3 6.1 0.5 2 1.3 7.2 1.6 11.7 1.2 17.5 -6.8 31.3 -26.3 44.9 -3.8 2.7 -9.8 7.2 -13.4 10.1 -3.6 2.8 -13.1 9.5 -21.2 14.7 -8.1 5.3 -16.4 11.1 -18.5 13.1 -3.6 3.2 -4.9 3.6 -23.8 7.5 -31.6 6.4 -49.4 8.1 -65.5 6.2 -24.6 -2.8 -38.9 -9.7 -50.5 -24.3 -7.4 -9.3 -17.8 -24.7 -22 -32.6 -1.6 -2.8 -2.9 -5.1 -3.1 -5 -0.1 0.2 -0.9 7.7 -1.8 16.8 -0.9 9.1 -2.1 20.4 -2.7 25.2 -1.1 8.6 -1.1 8.6 -10.5 9.3 -10.5 0.8 -9.4 -0.2 -11.1 10 -0.8 5 -0.8 5 -8.8 5.7 -22.2 1.8 -38.1 -5.2 -43.1 -19.1 -2.5 -7.1 -3 -24.8 -0.9 -38.3 0.9 -6.2 1.5 -13.1 1.3 -15.3 -0.3 -3.9 -0.3 -3.9 -5.3 -3.7 -8.6 0.5 -10 5.2 -6.4 21.1 1.6 7 2.4 13.7 2.4 19.6 0 7.8 -0.4 9.7 -2.8 14.7 -3.7 7.5 -12.7 15.8 -17.3 15.8 -2.5 0 -3.7 0.8 -6 4.2 -1.6 2.3 -5.1 5.9 -7.7 8 -4.3 3.3 -5.5 3.8 -10 3.7 -2.9 -0.1 -6.5 -0.4 -8.2 -0.8z m32.1 -27.8 c4 -3 8.3 -9.7 9.4 -14.9 0.6 -2.5 0.1 -7.1 -1.7 -15.7 -2 -9.6 -2.4 -13.9 -2 -20.7 0.3 -4.7 0.6 -12.4 0.6 -17.1 0 -14.5 2.5 -15.8 30.7 -16.6 19.2 -0.6 19.2 -0.6 21 2.3 2.7 4 3.1 17.8 0.9 32.2 -2 13.1 -1.5 23.1 1.4 29.7 3.5 7.9 12.6 12.5 24.7 12.5 5.8 0 6.4 -0.2 6.8 -2.2 0.7 -3.3 2.2 -17.5 5.6 -55.3 3.1 -32.9 3.1 -32.9 9.5 -39.6 4 -4.1 6.5 -7.6 6.5 -8.9 0 -1.2 -1.9 -4.4 -4.3 -7 -5.6 -6.2 -10.3 -15.1 -12.2 -23.1 -2.4 -10.1 -1.9 -33.7 1 -57.4 3.3 -25.9 3.5 -38.5 0.7 -44.8 -4.2 -9.4 -14.8 -17.8 -20.6 -16.3 -1.5 0.4 -4.1 1.9 -5.8 3.5 -3.2 2.8 -3.2 2.8 -3.4 23.2 -0.1 16.2 -0.8 25.3 -3.2 43.9 -2.8 21.5 -4.9 41.9 -5.5 54.5 -0.2 4.4 -0.6 5.2 -3.5 7.2 -4.7 3.1 -10 3.6 -27.7 2.8 -15.5 -0.7 -15.5 -0.7 -16.6 -4.4 -2.3 -7.1 -2.3 -41.7 0 -65.6 3.1 -32.2 3 -35.5 -0.1 -40.2 -1.4 -2.1 -4.3 -5.1 -6.5 -6.6 -8.8 -6.1 -15.6 -4 -19.3 6 -3.8 10.2 -5.1 19.9 -6 46.8 -1.2 34 -3 45 -9.4 55.8 -3.1 5.4 -11.2 12.9 -16.6 15.4 -3.9 1.8 -3.9 1.8 -4 11.6 0 7.7 0.4 10.6 1.9 13.6 2.2 4.3 5.9 7.1 9.3 7.1 3.2 0 6.3 2.3 7.6 5.7 0.6 1.5 1.3 9.6 1.5 17.8 0.6 17.7 3 41.1 5.1 47.7 1.9 6.5 6 13.2 9.3 15.3 2.1 1.4 8.1 3.8 11.1 4.4 0.2 0.1 1.9 -1.1 3.8 -2.6z m-146 -1.3 c11.6 -5.8 10.4 0 13.4 -63.3 2 -42.6 3 -55.7 4.1 -57.5 3.8 -6 11.5 -8.8 32.6 -11.6 8.6 -1.1 12.6 -2.2 17.5 -4.7 18.8 -9.5 31.2 -22.9 32.5 -35.2 0.4 -3.6 0 -4.8 -2.7 -8 -1.7 -2 -5.2 -4.9 -7.8 -6.4 -6.7 -4 -11.8 -3.5 -27.7 2.2 -11.4 4.2 -14.2 4.8 -23.2 5.3 -13.3 0.6 -15.3 -0.4 -15.3 -8 0 -2.9 1.1 -8.3 2.5 -12.4 2.5 -7.2 2.5 -7.2 0.5 -11.8 -2.6 -6.2 -8.9 -12.7 -14.9 -15.5 -4.9 -2.4 -4.9 -2.4 -9.1 1 -5.2 4.3 -12.7 14.1 -15.1 19.8 -1.1 2.4 -2.6 7.9 -3.3 12.2 -1.5 8.5 -3.9 12.8 -9.9 17.3 -7.8 5.9 -21.4 6.2 -46.6 1 -19.8 -4 -25.6 -4.5 -32.4 -2.5 -6.3 1.8 -13.9 8.7 -17 15.4 -4.4 9.5 -4.4 9.7 2.6 16.4 13.4 12.9 27.7 17.2 63.2 19.2 27.3 1.6 24.8 0.7 27.8 9.9 4.5 13.6 4.9 20.4 4.5 65.2 -0.3 41.5 -0.3 41.5 3.6 46.9 3.9 5.2 8 8 12.2 8.1 1.1 0 4.8 -1.3 8 -3z m386.4 -13.6 c5.8 -0.9 17.5 -3 26.1 -4.8 14.8 -3.1 16 -3.5 20.5 -7.3 2.7 -2.3 10.1 -7.4 16.4 -11.4 24.5 -15.4 33.4 -24.5 36.9 -37.6 1 -3.8 0.3 -11.4 -1.2 -13 -0.3 -0.2 -5 -1.2 -10.5 -2.1 -9.9 -1.5 -9.9 -1.5 -17.8 4 -20.8 14.6 -38.3 24.2 -53.7 29.3 -20.3 6.7 -33.4 7 -48.7 1.1 -5.2 -2 -11.3 -4.3 -13.6 -5.2 -6.4 -2.3 -11.9 -6.3 -14.8 -10.7 -2.3 -3.6 -2.6 -5.1 -2.6 -12.2 0 -4.4 0.6 -9.1 1.3 -10.5 1.2 -2.4 1.9 -2.5 12.2 -3.2 21.6 -1.4 43.5 -9.5 61.6 -22.9 10.4 -7.7 26.6 -24.2 30.2 -30.6 1.4 -2.7 3.8 -8.9 5.3 -13.8 2.5 -8.1 2.8 -10.6 2.8 -24.5 0.1 -14 -0.2 -16.5 -2.6 -25.3 -3.1 -11 -8.2 -22.6 -13.5 -30.7 -2.6 -4 -5.7 -6.9 -11.2 -10.5 -12.2 -8.1 -18.3 -11.4 -23.9 -13.1 -5 -1.5 -5.7 -1.5 -12.2 0.5 -33.6 10.2 -59.2 35.4 -79.4 78.2 -6.3 13.3 -10.8 24.7 -17.8 44.8 -5 14.3 -5.1 14.8 -5.1 26.1 0.1 22.9 7.3 43.5 24.2 68.7 15.8 23.7 22.4 29.4 39.6 34.8 14.6 4.6 28.6 5.1 51.5 1.9z"/>
  <path d="M1122.9 265.3 c-2.6 -3.1 -1.5 -12.9 2.3 -21.3 1.9 -4.1 4.1 -9.2 4.8 -11.4 1.3 -4 21.2 -34.1 25.8 -38.9 1.5 -1.5 4.7 -4.1 7.3 -5.7 4.1 -2.7 5.4 -3 12.5 -3 10 0 14.2 2.4 17.1 9.7 2.4 6.4 2.4 22.3 -0.2 30.8 -6.2 20.7 -17.2 29.7 -46.9 37.9 -14.4 4 -20.6 4.5 -22.7 1.9z m22.6 -13.4 c5.8 -1.7 10.7 -3.9 11.7 -5.1 4.8 -5.5 7.5 -25.6 4.3 -31.7 -2.8 -5.6 -3.9 -4.8 -13 8.8 -4.7 7.1 -8.5 13.4 -8.5 14 0 0.7 -1.6 4.6 -3.5 8.8 -1.9 4.2 -3.5 7.7 -3.5 7.9 0 0.9 3.2 0.2 12.5 -2.7z"/>
 </g>
 <g fill="#ffde00">
  <path d="M254 936.5 c-16.1 -0.8 -26.4 -1.8 -30 -2.9 -9.1 -2.6 -24.1 -5.4 -52.5 -9.6 -44.3 -6.6 -64 -11.5 -83.8 -20.8 -9.3 -4.4 -12.8 -7.8 -17.7 -17.8 -5.7 -11.7 -7 -23.4 -3.7 -34.7 1.3 -4.5 8.4 -11.4 15.2 -14.6 11.9 -5.6 23 -5.3 49.5 1.4 18.5 4.7 18.5 4.7 69.5 5.5 72.8 1.2 106 1.2 112.5 -0.1 4.1 -0.9 9 -0.8 19.5 0.1 12.9 1.2 15.3 1.1 30.5 -0.9 9.1 -1.2 20.1 -3.1 24.5 -4.2 9 -2.3 22.1 -7.2 24.9 -9.4 1.7 -1.3 1.7 -1.5 -1.4 -5.3 -4.6 -5.8 -22.5 -21.5 -35.5 -31.2 -22.2 -16.6 -43.8 -29.3 -95.5 -56 -57.6 -29.8 -87.1 -47.8 -103.7 -63.2 -5 -4.6 -9.7 -7.5 -22.5 -13.8 -15.5 -7.5 -17.2 -8.7 -33.3 -22.2 -63.5 -53.1 -89.8 -96.4 -89.8 -147.8 0 -47.9 23.8 -93.8 67.7 -130.6 32.1 -26.9 68 -46.9 145.1 -80.4 30.1 -13.2 53.9 -20.5 81 -24.9 76.6 -12.7 139.2 4.5 173.5 47.6 9.2 11.4 11.7 16.6 12.4 25.6 0.3 4.3 1.6 13.3 2.8 20 2.7 15.3 2.9 29.2 0.4 36.4 -1 3.1 -3.6 7.4 -6.4 10.4 -4.6 5.1 -4.6 5.1 -11.7 4.7 -11.9 -0.6 -18.2 -6.3 -24.1 -22.2 -7.2 -19.4 -12.9 -27.5 -20.5 -29.1 -1.9 -0.4 -6.9 -2.3 -11.2 -4.2 -30 -13.3 -67.8 -13.6 -130.2 -0.8 -11.4 2.3 -29 7.2 -53.5 15 -36.5 11.5 -36.5 11.5 -66.7 26.9 -16.6 8.4 -34.6 18.2 -40 21.8 -22.5 15 -36 32.2 -40.7 51.6 -0.8 3.1 -2.4 9.3 -3.7 13.7 -2 6.7 -2.4 10.3 -2.4 22 0 16.1 1.7 23.2 8.8 37 10.5 20.1 24.6 34.9 66.7 69.3 10.7 8.7 24 20 29.5 25.1 16.6 15.2 42.9 31.9 122 77.4 51.9 29.8 70.1 40.8 94 56.7 32.3 21.5 35 23.9 43.7 38.3 9.8 16.4 13.9 37.3 10.4 53.7 -3.2 14.8 -13.2 31.6 -27.6 46 -20.7 20.8 -47.9 33.1 -86.8 39.1 -11.7 1.8 -18.9 2.2 -49.2 2.4 -19.7 0.2 -46.4 -0.3 -60 -1z"/>
  <path d="M1698.4 841.9 c-8.4 -1.9 -18.4 -14.1 -18.4 -22.4 0 -6.5 2.8 -17.4 5.6 -22.2 7.3 -12.5 18 -18.2 48.6 -25.7 11.9 -3 24.1 -6.5 27 -7.9 9.4 -4.3 19 -11.3 28.6 -21 9.4 -9.4 9.4 -9.4 6.2 -15.8 -7.1 -14.2 -18.2 -26.5 -44.5 -49.3 -24.1 -20.9 -34.8 -32.4 -39.5 -42.1 -6.3 -13 -9.1 -25.4 -9.7 -43 -0.6 -18 1 -29.8 6.3 -45.5 9.8 -29.2 25.4 -47.7 63.9 -75.5 6 -4.4 15.5 -11.6 21 -16 16.7 -13.3 29.2 -17.9 49 -17.9 9.4 0 13.7 0.5 20 2.3 11.5 3.2 21.5 8.5 28.8 15.1 8.8 8.1 12.1 13.2 11.9 18.1 -0.2 2.1 0.9 11.2 2.4 20.1 4.5 28 2.8 40.3 -7 49.8 -3.3 3.1 -4.2 3.5 -9.4 3.5 -9.3 -0.1 -14.9 -2.2 -21 -8 -5.3 -5.2 -5.3 -5.2 -4.6 -18.2 0.7 -12.9 0.7 -12.9 -2.2 -15.2 -2.6 -2 -3.5 -2.2 -9.9 -1.6 -21 2.1 -39.8 12.3 -57.1 30.9 -6 6.4 -8.7 10.4 -13 19.1 -2.9 6.1 -6.4 14.5 -7.8 18.7 -3 9.2 -5 22.7 -4.1 27.1 1.9 9.2 14.5 23 43 47 31.2 26.4 43.6 40.8 49.2 57 8.8 25.1 -0.1 49.6 -29.2 80.5 -30.7 32.6 -74.3 54.9 -113 57.7 -4.4 0.3 -10 0.7 -12.5 0.9 -2.5 0.2 -6.3 0 -8.6 -0.5z"/>
  <path d="M529.5 833.2 c-2.3 -0.5 -4.2 -2.5 -8.1 -8.4 -15.4 -22.8 -16.3 -55.3 -2.8 -100.8 2 -6.9 4.1 -15.6 4.7 -19.5 0.5 -3.8 0.9 -27.5 0.8 -52.5 -0.1 -58.5 1.2 -77.2 7 -102.2 2.1 -8.8 2.1 -8.8 12 -8.8 11.9 0 15.1 1.1 20.3 7.1 8 9.4 12.7 23 16.6 47.8 1.1 7.4 3 17.6 4.2 22.5 2.6 11.5 3.6 39.5 1.9 55.7 -0.7 6.2 -3.2 23.4 -5.7 38.3 -2.5 14.9 -5.2 32.3 -6 38.6 -1.7 13.4 -1.8 36.7 -0.3 47.4 1 7.6 1 7.7 -2.2 13.7 -4.3 8 -11.1 15 -17.9 18.4 -4.3 2.2 -7.1 2.8 -13.5 3.1 -4.4 0.1 -9.3 0 -11 -0.4z"/>
  <path d="M843.9 815.2 c-5.2 -8.1 -7.4 -12.7 -10 -21.2 -3.5 -10.9 -3.3 -33.4 0.4 -54.5 4 -22.9 4.8 -30.8 4.8 -44 0 -13.5 -0.7 -19.5 -2.5 -19.5 -0.6 0 -2.2 2.1 -3.6 4.7 -4.1 7.8 -13.9 22.3 -20.2 29.9 -6.6 8 -12.7 13.5 -20.8 18.6 -9.3 5.8 -11 6.2 -17.6 4.3 -9.3 -2.7 -15.5 -6.3 -22.5 -13.4 -8.9 -8.9 -14.8 -21.2 -22.9 -47.5 -5.2 -16.9 -10 -29.9 -11.4 -31.4 -1.1 -1 -4.8 2.3 -6.5 5.6 -2.8 5.7 -3.2 8.2 -4.1 28.7 -0.6 14.4 -1.3 20.9 -3 27 -1.8 6.8 -2.3 12.1 -3 35.5 -0.6 20.2 -1.2 29.1 -2.4 33.5 -4.1 14.9 -12.6 27 -20.8 29.4 -6 1.9 -13.7 1.5 -19.2 -0.9 -5.4 -2.3 -15 -10.9 -20.8 -18.8 -3.9 -5.3 -3.9 -5.3 -2.4 -15 2 -12.8 4.1 -34.3 6.6 -69.2 1.2 -15.7 3 -35.3 4 -43.7 4.9 -38.4 14.5 -67.8 29.5 -91 9.6 -14.6 11.1 -16.3 15.4 -16.3 2 0 7 -1 11.1 -2.1 9.9 -2.9 20.2 -3 25.5 -0.4 11.9 5.8 24.7 25.8 35.4 55 10.8 29.3 18.1 45 21.2 45 2.2 0 6.3 -9.3 13.4 -30.5 8.4 -24.9 14.7 -37.9 22 -45.9 9.8 -10.5 22.3 -14.7 36 -12.2 4.9 0.9 6.7 1.9 10.3 5.4 4.8 4.7 10.3 15 12.8 24.2 1.4 5.1 1.7 10.6 1.5 35.1 -0.1 22.5 0.2 30.8 1.3 36.5 6.5 32.1 8.3 85.4 4.1 121.9 -2.7 23 -2.9 23.8 -8.2 29.2 -5.5 5.6 -13.5 10 -21.9 12.2 -3.4 0.9 -6.6 1.6 -7 1.6 -0.5 0 -2.5 -2.6 -4.5 -5.8z"/>
  <path d="M1164 802 c-0.8 -0.5 -5.9 -2.4 -11.4 -4.1 -14.5 -4.7 -22.6 -11 -24.2 -18.8 -0.2 -1.4 -1.1 -4.9 -1.9 -7.7 -4.3 -14.7 0.9 -30.6 11.9 -36.8 3.2 -1.9 6.1 -2.5 13.7 -2.9 8.2 -0.4 12 -1.3 26.5 -6.2 14 -4.7 18.4 -5.8 25.9 -6.2 6.3 -0.4 9.6 -1 10.8 -2.2 4.6 -4 -1 -14.4 -18 -33.6 -20.5 -23.1 -29.8 -36.2 -37.9 -53 -6.8 -14.1 -9.4 -24.1 -10.1 -38 -0.8 -15.5 1.3 -26 7.7 -39 13.6 -27.8 37 -48.4 80.6 -71.2 25.4 -13.2 51.2 -16.8 67.9 -9.4 5.8 2.6 13.2 9.5 16 15.1 5.3 10.6 6.4 25.4 2.5 33.5 -4.2 8.6 -12.6 12.9 -32.7 16.4 -15.3 2.7 -20.4 4.2 -25.6 7.7 -3.1 2 -5.5 2.7 -9.7 2.9 -10 0.3 -16 5.2 -28.3 23.5 -8.8 13.2 -9 14.4 -5.8 27.2 3.7 14.3 11 26.1 31.6 50.8 29.3 35.2 36.3 48 37.3 68.5 0.8 18 -5.3 33.7 -18.4 47.5 -17.3 18.1 -42.1 28.6 -79.9 33.9 -19.5 2.7 -26.8 3.2 -28.5 2.1z"/>
  <path d="M1372.5 801.9 c-16.5 -1.3 -26 -5.4 -36.5 -15.9 -10.5 -10.4 -15.2 -20.8 -22.6 -50 -3.3 -13 -3.6 -15.4 -3.1 -23 1 -14.8 4.7 -23.4 19.9 -46.7 14.8 -22.8 18.1 -31.4 17.6 -45.8 -0.3 -8 -0.3 -8 6.7 -15.5 16.5 -17.5 19.9 -20 28 -20 6.5 0 11 2.2 17.9 8.9 3.4 3.1 8.3 7 11 8.6 5.1 3 16.3 6.5 20.7 6.5 6.9 0 28.6 20.3 37.1 34.6 12.7 21.6 19 49.6 17.4 77.6 -0.8 14.3 -1.8 20.1 -5 27.9 -7.1 17.6 -23.8 35.5 -41.1 44.2 -5.8 2.9 -29.2 7.4 -42.4 8.2 -4.7 0.3 -10.4 0.7 -12.6 0.9 -2.2 0.1 -8 -0.1 -13 -0.5z m32.5 -63.9 c9.2 -2.5 14.1 -8.7 18.4 -22.8 1.5 -4.8 3.9 -12.7 5.5 -17.5 2.7 -8.9 2.7 -8.9 0.5 -13.8 -2.9 -6.2 -10.4 -14.2 -15.8 -16.9 -4.5 -2.1 -10.9 -2.6 -15 -1 -3.4 1.3 -10.2 7.5 -13.8 12.8 -6.6 9.5 -11.8 30.1 -11.8 46.4 0 6.7 0.3 8 2.5 10.7 1.4 1.6 3.6 3.2 4.8 3.5 3.2 0.7 20.6 -0.3 24.7 -1.4z"/>
  <path d="M1511.2 790.6 c-2.9 -0.8 -5.5 -1.6 -5.8 -1.9 -0.3 -0.3 -0.1 -8.6 0.5 -18.4 0.6 -9.8 1.5 -29.5 2.1 -43.8 1.6 -40.8 4.2 -72.4 7.1 -88 1.8 -9.5 10.4 -17.5 18.9 -17.5 5.7 0 13.6 2.7 24.5 8.5 5.5 2.9 11.7 5.8 13.9 6.5 5.8 1.9 11.1 7.3 19.9 20.5 11.5 17.4 14.9 20.5 22 20.5 3.2 0 3.6 -0.4 6.5 -6.2 4.8 -9.9 6.2 -16.1 6.2 -27.4 0 -13.6 -2.8 -24.1 -13.4 -50.3 -15.8 -38.9 -19 -54.4 -15.1 -73.9 1.3 -6.4 2.1 -8.2 5 -10.9 6.4 -6 13.9 -6.3 25.6 -0.8 3 1.3 6.8 2.7 8.4 3.1 3.3 0.6 7.3 5.2 12.7 14.9 4.9 8.6 9 18.9 17.4 43.4 7.3 21.6 7.3 21.6 7.9 69.5 0.4 33 0.2 50.6 -0.6 56.5 -3 23.1 -12.1 41.8 -27 55.6 -8.6 7.9 -11.3 8.9 -23.4 9 -9.2 0 -10.5 -0.3 -16.5 -3.1 -3.6 -1.7 -11.3 -6.7 -17.1 -11.1 -5.9 -4.4 -12.8 -9 -15.3 -10.3 -4.6 -2.2 -4.6 -2.2 -8.1 0.4 -5.1 3.9 -9.1 10.3 -16 25.6 -9.4 20.7 -14.1 26.6 -24.1 29.6 -5.6 1.7 -9.1 1.7 -16.2 0z"/>
  <path d="M964.5 771.6 c-4 -1.7 -9.3 -7.8 -12.1 -14.1 -1.3 -2.8 -3.5 -11.5 -4.9 -20 -4.1 -23.9 -8.1 -29.5 -20.8 -29.5 -5.8 0 -5.8 0 -8.4 -5.7 -4.4 -10.2 -6.5 -19.9 -6.6 -32.1 -0.2 -11.4 -0.2 -11.4 2.8 -13.9 4.2 -3.4 10.8 -6.6 19 -9.3 9.9 -3.2 15.9 -6.4 18.1 -9.7 1.7 -2.5 1.9 -4.8 2 -19.3 0 -11.1 0.6 -19.4 1.8 -25.2 3.6 -18.6 12.4 -39 29.7 -68.7 8.4 -14.5 8.4 -14.5 20.4 -19.3 21.2 -8.6 32.9 -10.9 44.5 -8.8 8.2 1.5 15 5.1 28.1 14.9 42.8 32.2 61.1 77.1 56 137.6 -1.1 12.7 -1.5 14.7 -4.6 21.1 -6.8 14 -19.7 22.5 -39.1 25.9 -5.1 0.9 -20 1.9 -34.9 2.4 -29.1 1 -37.6 2.4 -44.9 7.2 -3.2 2.2 -5.3 4.6 -7.2 8.5 -2.6 5.3 -2.6 5.9 -2.1 17.2 0.3 6.4 1.2 14.1 2.1 17.1 1.3 4.8 1.3 5.7 0 8.2 -2.1 4.2 -7 9.5 -11 12 -7.3 4.5 -21.5 6.3 -27.9 3.5z m86.5 -131.2 c2.5 -0.7 8.1 -2.1 12.5 -3 16.1 -3.3 23.5 -7.8 23.5 -14.4 0 -6.7 -13.1 -38.4 -19.9 -48.4 -5.5 -7.9 -15.3 -15 -23.4 -17 -3.6 -0.9 -9 3.4 -14.7 11.5 -7.8 11.1 -11.2 24.1 -13.1 50.8 -1.1 15.3 -1.1 15.3 1.7 18.2 1.6 1.6 4.2 3.4 5.9 3.9 4 1.2 21.9 0.2 27.5 -1.6z"/>
  <path d="M927.5 412.6 c-8.3 -2.6 -13 -7.9 -16.1 -18.4 -2.1 -6.6 -4.5 -30 -5.1 -47.7 -0.2 -8.2 -0.9 -16.3 -1.5 -17.8 -1.3 -3.4 -4.4 -5.7 -7.6 -5.7 -3.3 0 -7.1 -2.8 -9.2 -6.9 -1.4 -2.9 -1.9 -6.4 -2.1 -16.4 -0.3 -12.7 -0.3 -12.7 3.9 -14.8 5.8 -2.9 13.7 -10.2 16.8 -15.6 6.4 -10.8 8.2 -21.8 9.4 -55.8 0.9 -27.3 2.2 -37.2 6.2 -47.1 2 -5.2 2.9 -6.2 7 -8.3 4.4 -2.1 5.2 -2.2 9.8 -1.1 6.5 1.6 13.2 6.8 16 12.4 2.4 5.1 2.4 5.6 -1.2 44.1 -2.1 23.6 -2.1 52.5 0.1 59.6 1.1 3.6 1.1 3.6 14.9 4.4 14.9 0.7 20 0 24.6 -3.6 2.3 -1.8 2.6 -2.7 2.6 -8.2 0 -8.3 1.4 -23.4 4.9 -51.7 3.7 -29.4 4.5 -43 3.2 -54.5 -0.9 -9 -0.9 -9 1.7 -11.8 3.8 -4.1 7.4 -5.7 12.7 -5.7 8.4 0 17.3 6.9 21.8 16.9 2.9 6.4 2.7 23.4 -0.7 50.3 -5.3 42.2 -2.7 59.4 11 74.7 7.6 8.4 7.2 12.4 -2.1 22 -6.4 6.7 -6.4 6.7 -10 44.6 -4 43 -4.9 51.2 -5.7 52.1 -1.2 1.1 -18.5 0.5 -23.1 -1 -6.6 -2 -11.6 -6.1 -13.9 -11.4 -3 -6.6 -3.5 -21 -1.3 -35.5 2 -13.3 1.7 -22.2 -0.9 -26.2 -1.8 -2.8 -1.8 -2.8 -18 -2.2 -17.3 0.6 -21.8 1.5 -25.3 5.4 -2.4 2.5 -3 8.8 -1.4 14.3 0.4 1.5 0.2 3.8 -0.6 5.7 -1.9 4.7 -1.6 10.3 1.3 24.3 3 14.4 2.7 19.8 -1.4 27.3 -5.1 9.5 -11.3 12.3 -20.7 9.3z"/>
  <path d="M776.4 411.6 c-1.7 -0.8 -4.8 -3.8 -7 -6.7 -3.9 -5.4 -3.9 -5.4 -3.6 -47 0.4 -44.9 -0.1 -51.6 -4.5 -65.1 -3 -9.2 -0.5 -8.3 -27.8 -9.9 -36.3 -2 -51.4 -6.8 -64.5 -20.5 -6.7 -7 -6.6 -6.4 -2.9 -17.4 4.9 -14.3 17.9 -22.1 34 -20.6 3.7 0.4 14.3 2.3 23.6 4.1 23.2 4.8 32.5 4.5 40 -1.1 6 -4.5 8.4 -8.8 9.9 -17.3 1.7 -9.6 3.9 -15 9.3 -22.1 4.7 -6.3 13.5 -14 15.9 -14 3.5 0 13.9 5.9 17.5 9.9 4.5 4.9 7.7 11.9 7.7 16.4 0 1.8 -1.2 6.4 -2.5 10.2 -3.2 8.9 -3.1 11 0 13.1 4.3 2.8 14.8 1.4 30 -4.2 11.2 -4 14.1 -4.7 21 -4.8 7 -0.1 8.6 0.2 12.7 2.6 2.5 1.6 6.1 4.5 7.8 6.5 3 3.6 3.1 4.2 2.8 10.8 -0.4 8.7 -3.3 15 -10.2 22.4 -5.8 6 -13.1 11.3 -22.4 16 -4.9 2.5 -8.9 3.6 -17.5 4.7 -21.1 2.8 -28.8 5.6 -32.6 11.6 -1.1 1.8 -2.1 14.9 -4.1 57.5 -3 63.3 -1.8 57.5 -13.4 63.3 -6.6 3.3 -13.8 3.9 -19.2 1.6z"/>
  <path d="M1140 398 c-9.6 -1.2 -21.9 -5.1 -29.5 -9.3 -7.2 -4 -14.2 -12 -25.6 -29 -17.7 -26.4 -24.5 -46.6 -24.3 -72.7 0.1 -13.5 0.1 -13.5 5.2 -28.1 7 -20.1 11.5 -31.5 17.8 -44.8 20.2 -42.8 45.8 -68 79.6 -78.2 12.5 -3.8 20.6 -1.6 39.4 10.9 7.8 5.2 10.8 7.9 13.7 12.2 15.9 24.1 21.2 59 13.2 86.5 -3.7 12.6 -6.5 17.2 -17.4 28.4 -23.5 24 -50.1 37 -79.6 38.9 -10.3 0.7 -11 0.8 -12.2 3.2 -2.3 4.4 -1.6 12.2 1.3 16.6 4.3 6.3 7.9 8.5 24.1 14.3 6 2.1 12.2 4.5 14 5.2 7.3 3 33.4 -3.1 50.4 -11.6 8.7 -4.4 25.1 -14.5 37 -22.8 8.7 -5.9 8.7 -5.9 20.9 -3.9 6.9 1.2 12.7 2.7 13.1 3.4 1.3 2.1 2.2 11.5 1.4 15.5 -2.5 13.9 -12.1 24.2 -37.5 40.2 -6.3 4 -13.7 9.1 -16.4 11.4 -4.5 3.8 -5.7 4.2 -20.5 7.3 -29.3 6.1 -52.3 8.3 -68.1 6.4z m2.6 -137.6 c16.5 -4.6 27.8 -9.9 34.5 -16 15.5 -14.6 19.4 -46.3 6.7 -54.2 -7.2 -4.5 -17 -1.9 -25 6.5 -4.6 4.8 -24.5 34.9 -25.8 38.9 -0.7 2.2 -2.8 7.3 -4.7 11.4 -3.6 8 -4.4 13 -2.3 15.5 1.7 2 1.7 2 16.6 -2.1z"/>
 </g>
</svg>